<?xml version="1.0" encoding="UTF-8" standalone="no"?>
<!DOCTYPE svg PUBLIC "-//W3C//DTD SVG 1.1//EN" "http://www.w3.org/Graphics/SVG/1.1/DTD/svg11.dtd">
<svg width="100%" height="100%" viewBox="0 0 2644 245" version="1.1" xmlns="http://www.w3.org/2000/svg" xmlns:xlink="http://www.w3.org/1999/xlink" xml:space="preserve" xmlns:serif="http://www.serif.com/" style="fill-rule:evenodd;clip-rule:evenodd;stroke-linejoin:round;stroke-miterlimit:2;">
    <g id="Artboard1" transform="matrix(0.753697,0,0,0.069807,0,0)">
        <rect x="0" y="0" width="3507.87" height="3507.87" style="fill:none;"/>
        <g transform="matrix(1.07763,0,0,2.49589,776.945,-809.742)">
            <g transform="matrix(337.546,0,0,1573.53,535,1548.25)">
                <path d="M0.045,-0.295C0.045,-0.393 0.071,-0.47 0.125,-0.525C0.178,-0.58 0.251,-0.607 0.345,-0.607C0.37,-0.607 0.39,-0.605 0.407,-0.601C0.423,-0.597 0.443,-0.591 0.467,-0.583C0.484,-0.577 0.498,-0.572 0.511,-0.569C0.523,-0.566 0.537,-0.564 0.553,-0.564C0.55,-0.543 0.549,-0.518 0.549,-0.489C0.549,-0.475 0.549,-0.463 0.55,-0.452C0.551,-0.44 0.552,-0.434 0.553,-0.433L0.529,-0.433C0.523,-0.46 0.511,-0.485 0.492,-0.508C0.473,-0.531 0.451,-0.549 0.424,-0.562C0.397,-0.575 0.369,-0.582 0.34,-0.582C0.301,-0.582 0.267,-0.57 0.238,-0.547C0.209,-0.523 0.186,-0.489 0.171,-0.446C0.155,-0.403 0.147,-0.352 0.147,-0.295C0.147,-0.241 0.155,-0.193 0.172,-0.151C0.188,-0.108 0.211,-0.075 0.241,-0.052C0.271,-0.029 0.306,-0.017 0.345,-0.017C0.391,-0.017 0.432,-0.031 0.467,-0.06C0.502,-0.088 0.525,-0.124 0.534,-0.167L0.562,-0.167C0.558,-0.136 0.556,-0.107 0.556,-0.082C0.556,-0.063 0.557,-0.047 0.559,-0.035L0.553,-0.035C0.544,-0.035 0.533,-0.034 0.52,-0.031C0.507,-0.028 0.497,-0.025 0.49,-0.022C0.482,-0.019 0.476,-0.018 0.473,-0.017C0.448,-0.008 0.425,-0.002 0.404,0.003C0.383,0.008 0.362,0.01 0.34,0.01C0.28,0.01 0.228,-0.002 0.184,-0.027C0.139,-0.052 0.105,-0.087 0.081,-0.133C0.057,-0.178 0.045,-0.232 0.045,-0.295Z" style="fill:rgb(57,45,148);fill-rule:nonzero;"/>
            </g>
            <g transform="matrix(337.546,0,0,1573.53,739.891,1548.25)">
                <path d="M0.045,-0.299C0.045,-0.398 0.07,-0.474 0.122,-0.528C0.173,-0.58 0.244,-0.607 0.335,-0.607C0.428,-0.607 0.499,-0.58 0.55,-0.526C0.6,-0.472 0.625,-0.396 0.625,-0.299C0.625,-0.201 0.6,-0.125 0.549,-0.071C0.498,-0.017 0.426,0.01 0.335,0.01C0.244,0.01 0.173,-0.017 0.122,-0.071C0.07,-0.125 0.045,-0.201 0.045,-0.299ZM0.147,-0.299C0.147,-0.199 0.162,-0.127 0.193,-0.083C0.223,-0.039 0.27,-0.017 0.335,-0.017C0.4,-0.017 0.447,-0.039 0.478,-0.083C0.508,-0.127 0.523,-0.199 0.523,-0.299C0.523,-0.398 0.508,-0.47 0.478,-0.514C0.447,-0.558 0.4,-0.58 0.335,-0.58C0.27,-0.58 0.223,-0.558 0.193,-0.514C0.162,-0.47 0.147,-0.398 0.147,-0.299Z" style="fill:rgb(57,45,148);fill-rule:nonzero;"/>
            </g>
            <g transform="matrix(337.546,0,0,1573.53,966.046,1548.25)">
                <path d="M0.05,-0.029L0.089,-0.027C0.102,-0.027 0.108,-0.034 0.108,-0.049L0.108,-0.547C0.108,-0.555 0.106,-0.561 0.103,-0.565C0.1,-0.568 0.094,-0.57 0.085,-0.569L0.05,-0.567L0.05,-0.597L0.285,-0.597C0.354,-0.597 0.405,-0.584 0.439,-0.558C0.471,-0.531 0.488,-0.491 0.488,-0.436C0.488,-0.383 0.472,-0.341 0.439,-0.31C0.406,-0.279 0.362,-0.263 0.306,-0.263L0.201,-0.263L0.201,-0.049C0.201,-0.034 0.208,-0.027 0.221,-0.027L0.27,-0.029L0.27,-0L0.05,-0L0.05,-0.029ZM0.285,-0.291C0.316,-0.291 0.341,-0.305 0.362,-0.332C0.382,-0.359 0.392,-0.394 0.392,-0.436C0.392,-0.476 0.381,-0.508 0.359,-0.533C0.336,-0.557 0.306,-0.569 0.269,-0.569L0.213,-0.569C0.21,-0.569 0.208,-0.568 0.205,-0.566C0.202,-0.563 0.201,-0.56 0.201,-0.557L0.201,-0.291L0.285,-0.291Z" style="fill:rgb(57,45,148);fill-rule:nonzero;"/>
            </g>
            <g transform="matrix(337.546,0,0,1573.53,1142.58,1548.25)">
                <path d="M0.517,-0.597L0.517,-0.567L0.487,-0.569C0.476,-0.569 0.467,-0.562 0.459,-0.548L0.313,-0.287L0.313,-0.048C0.313,-0.034 0.32,-0.027 0.333,-0.027L0.381,-0.029L0.381,-0L0.152,-0L0.152,-0.029L0.201,-0.027C0.214,-0.027 0.22,-0.034 0.22,-0.049L0.22,-0.263L0.047,-0.55C0.04,-0.563 0.032,-0.569 0.023,-0.569L-0.005,-0.567L-0.005,-0.597L0.216,-0.597L0.216,-0.567L0.163,-0.569L0.162,-0.569C0.155,-0.569 0.151,-0.566 0.151,-0.559C0.151,-0.555 0.153,-0.55 0.156,-0.545L0.293,-0.317L0.424,-0.549C0.426,-0.552 0.427,-0.556 0.427,-0.559C0.427,-0.566 0.424,-0.569 0.417,-0.569L0.365,-0.567L0.365,-0.597L0.517,-0.597Z" style="fill:rgb(57,45,148);fill-rule:nonzero;"/>
            </g>
            <g transform="matrix(337.546,0,0,1573.53,1318.78,1548.25)">
                <path d="M0.904,-0.597L0.904,-0.567L0.874,-0.569C0.868,-0.57 0.863,-0.568 0.859,-0.563C0.854,-0.558 0.851,-0.553 0.849,-0.548L0.668,0.01L0.652,0.01L0.446,-0.509L0.276,0.01L0.257,0.01L0.046,-0.547C0.041,-0.562 0.034,-0.569 0.025,-0.569L-0.005,-0.567L-0.005,-0.597L0.211,-0.597L0.211,-0.567L0.158,-0.569C0.153,-0.569 0.15,-0.568 0.148,-0.567C0.146,-0.565 0.145,-0.562 0.145,-0.558L0.148,-0.547L0.297,-0.155L0.427,-0.556C0.424,-0.561 0.422,-0.565 0.419,-0.567C0.416,-0.569 0.411,-0.57 0.406,-0.569L0.365,-0.567L0.365,-0.597L0.573,-0.597L0.573,-0.567L0.531,-0.569C0.526,-0.569 0.522,-0.567 0.521,-0.562C0.519,-0.557 0.519,-0.552 0.521,-0.547L0.684,-0.143L0.814,-0.549L0.816,-0.557C0.816,-0.561 0.815,-0.564 0.813,-0.567C0.81,-0.569 0.807,-0.57 0.803,-0.569L0.751,-0.567L0.751,-0.597L0.904,-0.597Z" style="fill:rgb(57,45,148);fill-rule:nonzero;"/>
            </g>
            <g transform="matrix(337.546,0,0,1573.53,1617.17,1548.25)">
                <path d="M0.05,-0.029L0.089,-0.027C0.102,-0.027 0.108,-0.034 0.108,-0.049L0.108,-0.548C0.108,-0.554 0.106,-0.559 0.103,-0.564C0.099,-0.568 0.093,-0.57 0.086,-0.569L0.05,-0.567L0.05,-0.597L0.275,-0.597C0.349,-0.597 0.403,-0.584 0.436,-0.56C0.469,-0.535 0.486,-0.494 0.486,-0.438C0.486,-0.404 0.475,-0.375 0.453,-0.35C0.43,-0.325 0.401,-0.307 0.364,-0.297C0.385,-0.297 0.405,-0.29 0.427,-0.276C0.448,-0.262 0.465,-0.242 0.479,-0.215C0.493,-0.188 0.5,-0.157 0.5,-0.122C0.5,-0.102 0.503,-0.082 0.508,-0.061C0.513,-0.04 0.52,-0.029 0.529,-0.028C0.533,-0.027 0.538,-0.026 0.543,-0.026C0.551,-0.026 0.557,-0.027 0.562,-0.03L0.562,-0L0.426,-0C0.418,-0.017 0.413,-0.039 0.412,-0.066C0.411,-0.083 0.41,-0.096 0.41,-0.104L0.41,-0.137C0.41,-0.187 0.394,-0.224 0.362,-0.249C0.329,-0.274 0.29,-0.286 0.243,-0.286L0.201,-0.286L0.201,-0.049C0.201,-0.034 0.208,-0.027 0.221,-0.027L0.27,-0.029L0.27,-0L0.05,-0L0.05,-0.029ZM0.294,-0.313C0.325,-0.313 0.349,-0.324 0.366,-0.346C0.383,-0.368 0.392,-0.399 0.392,-0.438C0.392,-0.484 0.383,-0.517 0.364,-0.538C0.345,-0.559 0.315,-0.569 0.275,-0.569L0.213,-0.569C0.205,-0.569 0.201,-0.566 0.201,-0.559L0.201,-0.313L0.294,-0.313Z" style="fill:rgb(57,45,148);fill-rule:nonzero;"/>
            </g>
            <g transform="matrix(337.546,0,0,1573.53,1813.29,1548.25)">
                <path d="M0.05,-0.029L0.089,-0.027C0.102,-0.027 0.108,-0.034 0.108,-0.049L0.108,-0.548C0.108,-0.554 0.106,-0.559 0.103,-0.564C0.1,-0.568 0.095,-0.57 0.089,-0.569L0.05,-0.567L0.05,-0.597L0.26,-0.597L0.26,-0.567L0.221,-0.569L0.219,-0.569C0.214,-0.569 0.209,-0.567 0.206,-0.563C0.203,-0.559 0.201,-0.554 0.201,-0.548L0.201,-0.049C0.201,-0.034 0.208,-0.027 0.221,-0.027L0.26,-0.029L0.26,-0L0.05,-0L0.05,-0.029Z" style="fill:rgb(57,45,148);fill-rule:nonzero;"/>
            </g>
            <g transform="matrix(337.546,0,0,1573.53,1917.93,1548.25)">
                <path d="M0.015,-0.6C0.024,-0.599 0.038,-0.598 0.055,-0.598L0.474,-0.598C0.495,-0.598 0.509,-0.599 0.514,-0.6L0.514,-0.444L0.488,-0.444C0.488,-0.487 0.478,-0.519 0.46,-0.54C0.44,-0.56 0.409,-0.57 0.365,-0.57L0.323,-0.57C0.316,-0.57 0.312,-0.566 0.311,-0.559L0.311,-0.049C0.311,-0.034 0.318,-0.027 0.331,-0.027L0.384,-0.029L0.384,-0L0.145,-0L0.145,-0.029L0.199,-0.027C0.205,-0.027 0.21,-0.029 0.213,-0.035C0.216,-0.04 0.218,-0.045 0.218,-0.052L0.218,-0.558C0.218,-0.566 0.214,-0.57 0.206,-0.57L0.165,-0.57C0.121,-0.57 0.089,-0.56 0.07,-0.54C0.051,-0.519 0.041,-0.487 0.041,-0.444L0.015,-0.444L0.015,-0.6Z" style="fill:rgb(57,45,148);fill-rule:nonzero;"/>
            </g>
            <g transform="matrix(337.546,0,0,1573.53,2096.49,1548.25)">
                <path d="M0.617,-0.597L0.617,-0.567L0.578,-0.569L0.576,-0.569C0.565,-0.569 0.559,-0.562 0.559,-0.548L0.559,0.006L0.529,0.006L0.138,-0.525L0.138,-0.049C0.138,-0.034 0.144,-0.027 0.157,-0.027L0.206,-0.029L0.206,-0L0.045,-0L0.045,-0.029L0.084,-0.027C0.097,-0.027 0.104,-0.034 0.104,-0.049L0.104,-0.548C0.104,-0.554 0.102,-0.559 0.099,-0.564C0.095,-0.568 0.09,-0.57 0.084,-0.569L0.045,-0.567L0.045,-0.597L0.2,-0.597L0.525,-0.155L0.525,-0.549C0.525,-0.562 0.519,-0.569 0.508,-0.569L0.505,-0.569L0.456,-0.567L0.456,-0.597L0.617,-0.597Z" style="fill:rgb(57,45,148);fill-rule:nonzero;"/>
            </g>
            <g transform="matrix(337.546,0,0,1573.53,2319.94,1548.25)">
                <path d="M0.045,-0.295C0.045,-0.398 0.071,-0.475 0.123,-0.528C0.174,-0.581 0.248,-0.607 0.345,-0.607C0.376,-0.607 0.402,-0.604 0.425,-0.599C0.448,-0.594 0.471,-0.587 0.496,-0.578C0.522,-0.569 0.541,-0.564 0.553,-0.564C0.55,-0.551 0.549,-0.528 0.549,-0.495C0.549,-0.486 0.55,-0.473 0.551,-0.457C0.552,-0.446 0.553,-0.438 0.553,-0.433L0.513,-0.433C0.514,-0.436 0.514,-0.441 0.514,-0.448C0.514,-0.49 0.499,-0.523 0.47,-0.547C0.44,-0.57 0.397,-0.582 0.34,-0.582C0.282,-0.582 0.235,-0.558 0.2,-0.509C0.165,-0.46 0.147,-0.389 0.147,-0.295C0.147,-0.11 0.213,-0.017 0.345,-0.017C0.375,-0.017 0.399,-0.02 0.418,-0.027C0.437,-0.033 0.455,-0.045 0.473,-0.063L0.473,-0.223C0.473,-0.238 0.467,-0.245 0.454,-0.245L0.395,-0.243L0.395,-0.272L0.626,-0.272L0.626,-0.243L0.585,-0.245C0.579,-0.245 0.574,-0.243 0.571,-0.239C0.568,-0.235 0.566,-0.23 0.566,-0.224L0.566,-0.035C0.563,-0.036 0.559,-0.036 0.553,-0.036C0.54,-0.036 0.52,-0.031 0.491,-0.02C0.462,-0.01 0.436,-0.003 0.415,0.003C0.393,0.008 0.368,0.01 0.34,0.01C0.247,0.01 0.174,-0.016 0.123,-0.068C0.071,-0.119 0.045,-0.195 0.045,-0.295Z" style="fill:rgb(57,45,148);fill-rule:nonzero;"/>
            </g>
        </g>
        <g id="_-OLIWIA--BONAREK--" serif:id="(OLIWIA ¶BONAREK )" transform="matrix(0.420549,0,0,3.45051,-250.582,-4605.86)">
            <g transform="matrix(3.07362,0,0,4.04466,-646.969,-4049.39)">
                <path d="M566.6,1394.8C566.6,1379.9 570.65,1368.48 578.75,1360.53C586.85,1352.58 598.25,1348.6 612.95,1348.6C627.85,1348.6 639.3,1352.65 647.3,1360.75C655.3,1368.85 659.3,1380.2 659.3,1394.8C659.3,1409.5 655.25,1420.9 647.15,1429C639.05,1437.1 627.65,1441.15 612.95,1441.15C598.25,1441.15 586.85,1437.1 578.75,1429C570.65,1420.9 566.6,1409.5 566.6,1394.8ZM589.25,1394.8C589.25,1405.3 590.1,1413.53 591.8,1419.48C593.5,1425.42 596.05,1429.65 599.45,1432.15C602.85,1434.65 607.35,1435.9 612.95,1435.9C618.55,1435.9 623.05,1434.65 626.45,1432.15C629.85,1429.65 632.4,1425.42 634.1,1419.48C635.8,1413.53 636.65,1405.3 636.65,1394.8C636.65,1384.4 635.8,1376.2 634.1,1370.2C632.4,1364.2 629.85,1359.95 626.45,1357.45C623.05,1354.95 618.55,1353.7 612.95,1353.7C607.35,1353.7 602.85,1354.95 599.45,1357.45C596.05,1359.95 593.5,1364.2 591.8,1370.2C590.1,1376.2 589.25,1384.4 589.25,1394.8Z" style="fill:rgb(57,45,148);fill-rule:nonzero;stroke:rgb(57,45,148);stroke-width:1.03px;"/>
            </g>
            <g transform="matrix(3.07362,0,0,4.04466,-646.969,-4049.39)">
                <path d="M681.65,1433.95L687.5,1434.4C689,1434.4 689.75,1433.3 689.75,1431.1L689.75,1358.5C689.75,1357.6 689.475,1356.83 688.925,1356.17C688.375,1355.53 687.7,1355.25 686.9,1355.35L681.65,1355.65L681.65,1350.1L720.8,1350.1L720.8,1355.65L713.45,1355.35L713.15,1355.35C712.35,1355.35 711.7,1355.65 711.2,1356.25C710.7,1356.85 710.45,1357.6 710.45,1358.5L710.45,1432.3C710.45,1433.6 711.05,1434.25 712.25,1434.25L724.7,1434.25C731.2,1434.25 736.15,1432.53 739.55,1429.08C742.95,1425.62 744.65,1420.6 744.65,1414L749.6,1414L749.6,1440.1C747.8,1439.8 741.6,1439.65 731,1439.65L681.65,1439.65L681.65,1433.95Z" style="fill:rgb(57,45,148);fill-rule:nonzero;stroke:rgb(57,45,148);stroke-width:1.03px;"/>
            </g>
            <g transform="matrix(3.07362,0,0,4.04466,-646.969,-4049.39)">
                <path d="M770.75,1434.1L776,1434.4L776.3,1434.4C778,1434.4 778.85,1433.3 778.85,1431.1L778.85,1358.5C778.85,1357.6 778.6,1356.83 778.1,1356.17C777.6,1355.53 776.9,1355.25 776,1355.35L770.75,1355.65L770.75,1350.1L807.8,1350.1L807.8,1355.65L802.55,1355.35L802.25,1355.35C801.45,1355.35 800.8,1355.65 800.3,1356.25C799.8,1356.85 799.55,1357.6 799.55,1358.5L799.55,1431.1C799.55,1433.5 800.55,1434.6 802.55,1434.4L807.8,1434.1L807.8,1439.65L770.75,1439.65L770.75,1434.1Z" style="fill:rgb(57,45,148);fill-rule:nonzero;stroke:rgb(57,45,148);stroke-width:1.03px;"/>
            </g>
            <g transform="matrix(3.07362,0,0,4.04466,-646.969,-4049.39)">
                <path d="M965.3,1350.1L965.3,1355.65L960.8,1355.35C959.9,1355.25 959.125,1355.55 958.475,1356.25C957.825,1356.95 957.35,1357.7 957.05,1358.5L929.3,1441.15L922.4,1441.15L894.8,1369.45L870.5,1441.15L863.15,1441.15L832.85,1358.65C832.15,1356.45 831.1,1355.35 829.7,1355.35L825.2,1355.65L825.2,1350.1L863.45,1350.1L863.45,1355.65L855.95,1355.35C855.25,1355.35 854.75,1355.48 854.45,1355.73C854.15,1355.98 854,1356.4 854,1357L854.45,1358.65L873.8,1412.35L891.5,1360.75L891.2,1360C890.6,1358.3 890.05,1357.08 889.55,1356.33C889.05,1355.58 888.3,1355.25 887.3,1355.35L881.15,1355.65L881.15,1350.1L918.2,1350.1L918.2,1355.65L911.9,1355.35C911.1,1355.35 910.575,1355.73 910.325,1356.48C910.075,1357.23 910.1,1357.95 910.4,1358.65L931.4,1415.8L950.75,1358.35L951.05,1357.15C951.05,1356.55 950.875,1356.08 950.525,1355.73C950.175,1355.38 949.7,1355.25 949.1,1355.35L941.3,1355.65L941.3,1350.1L965.3,1350.1Z" style="fill:rgb(57,45,148);fill-rule:nonzero;stroke:rgb(57,45,148);stroke-width:1.03px;"/>
            </g>
            <g transform="matrix(3.07362,0,0,4.04466,-646.969,-4049.39)">
                <path d="M980.15,1434.1L985.4,1434.4L985.7,1434.4C987.4,1434.4 988.25,1433.3 988.25,1431.1L988.25,1358.5C988.25,1357.6 988,1356.83 987.5,1356.17C987,1355.53 986.3,1355.25 985.4,1355.35L980.15,1355.65L980.15,1350.1L1017.2,1350.1L1017.2,1355.65L1011.95,1355.35L1011.65,1355.35C1010.85,1355.35 1010.2,1355.65 1009.7,1356.25C1009.2,1356.85 1008.95,1357.6 1008.95,1358.5L1008.95,1431.1C1008.95,1433.5 1009.95,1434.6 1011.95,1434.4L1017.2,1434.1L1017.2,1439.65L980.15,1439.65L980.15,1434.1Z" style="fill:rgb(57,45,148);fill-rule:nonzero;stroke:rgb(57,45,148);stroke-width:1.03px;"/>
            </g>
            <g transform="matrix(3.07362,0,0,4.04466,-646.969,-4049.39)">
                <path d="M1130,1434.1L1130,1439.65L1085,1439.65L1085,1434.1L1091.9,1434.4C1094.9,1434.7 1096.4,1433.5 1096.4,1430.8C1096.4,1429.1 1095.9,1427.15 1094.9,1424.95L1089.35,1411.75L1056.35,1411.75L1051.25,1424.05C1049.85,1427.15 1049.15,1429.65 1049.15,1431.55C1049.15,1433.65 1050.25,1434.65 1052.45,1434.55L1059.2,1434.1L1059.2,1439.65L1032.05,1439.65L1032.05,1434.1L1036.4,1434.4L1037,1434.4C1039,1434.4 1040.65,1433.45 1041.95,1431.55C1043.45,1429.35 1044.95,1426.45 1046.45,1422.85L1077.35,1348.6L1084.7,1348.6L1115.9,1423.15C1117.3,1426.75 1118.75,1429.6 1120.25,1431.7C1121.65,1433.5 1123.4,1434.4 1125.5,1434.4L1126.25,1434.4L1130,1434.1ZM1058.45,1406.5L1087.25,1406.5L1072.7,1372L1058.45,1406.5Z" style="fill:rgb(57,45,148);fill-rule:nonzero;stroke:rgb(57,45,148);stroke-width:1.03px;"/>
            </g>
            <g transform="matrix(3.07362,0,0,4.04466,-646.969,-4049.39)">
                <path d="M454.1,1474.09C462.6,1474.09 469.05,1475.89 473.45,1479.49C477.85,1483.09 480.05,1488.44 480.05,1495.54C480.05,1500.84 478.175,1505.32 474.425,1508.97C470.675,1512.62 465.65,1514.99 459.35,1516.09C464.05,1516.09 468.35,1517.09 472.25,1519.09C476.15,1521.09 479.25,1523.87 481.55,1527.42C483.85,1530.97 485,1534.94 485,1539.34C485,1555.54 473.95,1563.64 451.85,1563.64L407.45,1563.64L407.45,1558.09L414.65,1558.39C416.25,1558.39 417.05,1557.29 417.05,1555.09L417.05,1482.34C417.05,1481.64 416.825,1480.97 416.375,1480.32C415.925,1479.67 415.3,1479.34 414.5,1479.34L407.45,1479.64L407.45,1474.09L454.1,1474.09ZM439.55,1479.34C438.55,1479.34 437.95,1479.94 437.75,1481.14L437.75,1514.29L445.55,1514.29C450.15,1514.29 453.55,1512.87 455.75,1510.02C457.95,1507.17 459.05,1502.59 459.05,1496.29C459.05,1484.99 454.45,1479.34 445.25,1479.34L439.55,1479.34ZM437.75,1519.54L437.75,1556.29C437.75,1557.59 438.45,1558.24 439.85,1558.24L447.2,1558.24C452.3,1558.24 456.325,1556.64 459.275,1553.44C462.225,1550.24 463.7,1545.44 463.7,1539.04C463.7,1532.24 462.5,1527.29 460.1,1524.19C457.7,1521.09 454.05,1519.54 449.15,1519.54L437.75,1519.54Z" style="fill:rgb(57,45,148);fill-rule:nonzero;stroke:rgb(57,45,148);stroke-width:1.03px;"/>
            </g>
            <g transform="matrix(3.07362,0,0,4.04466,-646.969,-4049.39)">
                <path d="M505.25,1518.79C505.25,1503.89 509.3,1492.47 517.4,1484.52C525.5,1476.57 536.9,1472.59 551.6,1472.59C566.5,1472.59 577.95,1476.64 585.95,1484.74C593.95,1492.84 597.95,1504.19 597.95,1518.79C597.95,1533.49 593.9,1544.89 585.8,1552.99C577.7,1561.09 566.3,1565.14 551.6,1565.14C536.9,1565.14 525.5,1561.09 517.4,1552.99C509.3,1544.89 505.25,1533.49 505.25,1518.79ZM527.9,1518.79C527.9,1529.29 528.75,1537.52 530.45,1543.47C532.15,1549.42 534.7,1553.64 538.1,1556.14C541.5,1558.64 546,1559.89 551.6,1559.89C557.2,1559.89 561.7,1558.64 565.1,1556.14C568.5,1553.64 571.05,1549.42 572.75,1543.47C574.45,1537.52 575.3,1529.29 575.3,1518.79C575.3,1508.39 574.45,1500.19 572.75,1494.19C571.05,1488.19 568.5,1483.94 565.1,1481.44C561.7,1478.94 557.2,1477.69 551.6,1477.69C546,1477.69 541.5,1478.94 538.1,1481.44C534.7,1483.94 532.15,1488.19 530.45,1494.19C528.75,1500.19 527.9,1508.39 527.9,1518.79Z" style="fill:rgb(57,45,148);fill-rule:nonzero;stroke:rgb(57,45,148);stroke-width:1.03px;"/>
            </g>
            <g transform="matrix(3.07362,0,0,4.04466,-646.969,-4049.39)">
                <path d="M710.9,1474.09L710.9,1478.59L705.05,1478.29L704.75,1478.29C703.05,1478.29 702.2,1479.34 702.2,1481.44L702.2,1564.54L693.2,1564.54L634.55,1484.89L634.55,1556.29C634.55,1558.49 635.5,1559.59 637.4,1559.59L644.75,1559.29L644.75,1563.64L619.55,1563.64L619.55,1559.29L625.4,1559.59C627.4,1559.59 628.4,1558.49 628.4,1556.29L628.4,1481.44C628.4,1480.54 628.125,1479.77 627.575,1479.12C627.025,1478.47 626.3,1478.19 625.4,1478.29L619.55,1478.59L619.55,1474.09L650.45,1474.09L696.05,1536.19L696.05,1481.29C696.05,1479.29 695.2,1478.29 693.5,1478.29L693.05,1478.29L685.7,1478.59L685.7,1474.09L710.9,1474.09Z" style="fill:rgb(57,45,148);fill-rule:nonzero;stroke:rgb(57,45,148);stroke-width:1.03px;"/>
            </g>
            <g transform="matrix(3.07362,0,0,4.04466,-646.969,-4049.39)">
                <path d="M822.95,1558.09L822.95,1563.64L777.95,1563.64L777.95,1558.09L784.85,1558.39C787.85,1558.69 789.35,1557.49 789.35,1554.79C789.35,1553.09 788.85,1551.14 787.85,1548.94L782.3,1535.74L749.3,1535.74L744.2,1548.04C742.8,1551.14 742.1,1553.64 742.1,1555.54C742.1,1557.64 743.2,1558.64 745.4,1558.54L752.15,1558.09L752.15,1563.64L725,1563.64L725,1558.09L729.35,1558.39L729.95,1558.39C731.95,1558.39 733.6,1557.44 734.9,1555.54C736.4,1553.34 737.9,1550.44 739.4,1546.84L770.3,1472.59L777.65,1472.59L808.85,1547.14C810.25,1550.74 811.7,1553.59 813.2,1555.69C814.6,1557.49 816.35,1558.39 818.45,1558.39L819.2,1558.39L822.95,1558.09ZM751.4,1530.49L780.2,1530.49L765.65,1495.99L751.4,1530.49Z" style="fill:rgb(57,45,148);fill-rule:nonzero;stroke:rgb(57,45,148);stroke-width:1.03px;"/>
            </g>
            <g transform="matrix(3.07362,0,0,4.04466,-646.969,-4049.39)">
                <path d="M837.8,1558.09L843.05,1558.39L843.35,1558.39C845.05,1558.39 845.9,1557.29 845.9,1555.09L845.9,1482.49C845.9,1481.59 845.625,1480.82 845.075,1480.17C844.525,1479.52 843.7,1479.24 842.6,1479.34L837.8,1479.64L837.8,1474.09L876.65,1474.09C887.45,1474.09 895.425,1475.92 900.575,1479.57C905.725,1483.22 908.3,1488.89 908.3,1496.59C908.3,1502.69 906.375,1507.79 902.525,1511.89C898.675,1515.99 893.35,1518.74 886.55,1520.14C890.15,1520.14 893.8,1521.14 897.5,1523.14C901.2,1525.14 904.275,1528.07 906.725,1531.92C909.175,1535.77 910.4,1540.24 910.4,1545.34C910.4,1548.14 910.825,1551.12 911.675,1554.27C912.525,1557.42 913.55,1559.14 914.75,1559.44C915.35,1559.64 916,1559.74 916.7,1559.74C917.6,1559.74 918.4,1559.54 919.1,1559.14L919.1,1563.64L892.55,1563.64C891.35,1561.14 890.65,1557.84 890.45,1553.74C890.25,1551.14 890.15,1549.24 890.15,1548.04L890.15,1543.09C890.15,1536.29 888.25,1531.24 884.45,1527.94C880.65,1524.64 876.05,1522.99 870.65,1522.99L866.6,1522.99L866.6,1555.09C866.6,1557.29 867.6,1558.39 869.6,1558.39L876.95,1558.09L876.95,1563.64L837.8,1563.64L837.8,1558.09ZM876.05,1517.74C879.65,1517.74 882.525,1516.02 884.675,1512.57C886.825,1509.12 887.9,1504.44 887.9,1498.54C887.9,1491.84 886.7,1486.97 884.3,1483.92C881.9,1480.87 878.2,1479.34 873.2,1479.34L868.4,1479.34C867.2,1479.34 866.6,1479.84 866.6,1480.84L866.6,1517.74L876.05,1517.74Z" style="fill:rgb(57,45,148);fill-rule:nonzero;stroke:rgb(57,45,148);stroke-width:1.03px;"/>
            </g>
            <g transform="matrix(3.07362,0,0,4.04466,-646.969,-4049.39)">
                <path d="M939.35,1557.94L944.75,1558.39C946.55,1558.39 947.45,1557.29 947.45,1555.09L947.45,1482.49C947.45,1481.59 947.175,1480.82 946.625,1480.17C946.075,1479.52 945.35,1479.24 944.45,1479.34L939.35,1479.64L939.35,1474.09L1005.5,1474.09C1006.9,1474.09 1007.75,1474.04 1008.05,1473.94L1008.05,1497.19L1002.8,1497.19C1002.8,1490.89 1001.1,1486.34 997.7,1483.54C994.3,1480.74 988.9,1479.34 981.5,1479.34L969.95,1479.34C968.75,1479.34 968.15,1480.04 968.15,1481.44L968.15,1514.89L978.95,1514.89C982.35,1514.89 985.1,1513.54 987.2,1510.84C989.3,1508.14 990.35,1504.44 990.35,1499.74L995.45,1499.74L995.45,1534.99L990.35,1534.99C990.35,1530.79 989.225,1527.27 986.975,1524.42C984.725,1521.57 982.05,1520.14 978.95,1520.14L968.15,1520.14L968.15,1556.29C968.15,1557.59 968.75,1558.24 969.95,1558.24L986.45,1558.24C993.25,1558.24 998.425,1556.39 1001.98,1552.69C1005.52,1548.99 1007.3,1543.69 1007.3,1536.79L1012.55,1536.79L1012.55,1564.09C1010.35,1563.79 1005.55,1563.64 998.15,1563.64L939.35,1563.64L939.35,1557.94Z" style="fill:rgb(57,45,148);fill-rule:nonzero;stroke:rgb(57,45,148);stroke-width:1.03px;"/>
            </g>
            <g transform="matrix(3.07362,0,0,4.04466,-646.969,-4049.39)">
                <path d="M1121.6,1558.54C1123.3,1558.54 1124.8,1558.39 1126.1,1558.09L1126.1,1563.64L1083.35,1563.64L1083.35,1558.09L1089.8,1558.54L1090.25,1558.54C1091.95,1558.54 1092.8,1557.99 1092.8,1556.89C1092.8,1556.19 1092.55,1555.49 1092.05,1554.79L1071.2,1523.74L1065.8,1530.04L1065.8,1555.09C1065.8,1557.49 1066.8,1558.59 1068.8,1558.39L1075.55,1558.09L1075.55,1563.64L1037,1563.64L1037,1558.09L1042.25,1558.39L1042.55,1558.39C1044.25,1558.39 1045.1,1557.29 1045.1,1555.09L1045.1,1482.49C1045.1,1481.49 1044.85,1480.69 1044.35,1480.09C1043.85,1479.49 1043.15,1479.24 1042.25,1479.34L1037,1479.64L1037,1474.09L1076.15,1474.09L1076.15,1479.64L1068.8,1479.34C1066.8,1479.34 1065.8,1480.44 1065.8,1482.64L1065.8,1521.94L1097.15,1484.74C1098.85,1482.74 1099.7,1481.39 1099.7,1480.69C1099.7,1479.79 1099.2,1479.34 1098.2,1479.34L1092.8,1479.64L1092.8,1474.09L1119.8,1474.09L1119.8,1479.64L1114.7,1479.34C1113.1,1479.24 1111.65,1479.49 1110.35,1480.09C1109.05,1480.69 1107.6,1481.89 1106,1483.69L1085.15,1507.84L1118,1556.44C1118.9,1557.84 1120.1,1558.54 1121.6,1558.54Z" style="fill:rgb(57,45,148);fill-rule:nonzero;stroke:rgb(57,45,148);stroke-width:1.03px;"/>
            </g>
        </g>
        <g transform="matrix(0.938619,0,0,10.1342,-6565.63,-3322.21)">
            <path d="M8191.46,572.818C8169.73,553.234 8152.57,452.731 8152.57,452.731C8151.62,445.909 8152.9,439.292 8156.42,432.881C8159.93,426.469 8165.35,421.166 8172.67,416.972C8186.52,409.041 8199.48,407.398 8211.54,412.044C8215.13,413.424 8218.61,415.352 8221.99,417.83C8224.14,416.661 8226.31,415.63 8228.49,414.736C8245.9,407.617 8264.17,409.862 8283.3,421.472C8302.61,433.185 8313.03,448.355 8314.59,466.98C8316.14,485.605 8309.48,507.161 8294.62,531.649C8263.94,582.211 8224.56,602.651 8191.46,572.818ZM8194.37,525.342C8192.78,529.478 8191.63,533.174 8190.93,536.431C8188.41,548.088 8191,556.25 8198.68,560.914C8206.37,565.579 8214.73,564.135 8223.75,556.581C8232.78,549.028 8244.31,533.688 8258.34,510.56C8272.65,486.98 8281.14,469.33 8283.81,457.611C8286.48,445.892 8283.97,437.7 8276.29,433.035C8268.6,428.371 8260.13,429.902 8250.88,437.631C8248.75,439.411 8246.49,441.613 8244.09,444.234C8244.17,444.376 8244.26,444.519 8244.34,444.662C8253.95,461.453 8257.5,476.304 8254.96,489.216C8252.42,502.127 8244.07,512.64 8229.9,520.754C8221.62,525.495 8214.63,527.864 8208.92,527.86C8204.27,527.858 8199.42,527.019 8194.37,525.342ZM8218.97,479.035C8217.84,480.835 8216.7,482.689 8215.55,484.594C8208.26,496.612 8202.53,507.082 8198.37,516.006C8204.31,518.398 8210.33,517.85 8216.41,514.364C8220.87,511.812 8223.64,508.535 8224.73,504.535C8225.82,500.534 8225.27,495.326 8223.08,488.912C8222.08,486.017 8220.72,482.725 8218.97,479.035ZM8195.32,440.618C8193.26,438.189 8191.28,436.166 8189.4,434.55C8183.17,429.217 8176.72,428.464 8170.03,432.293C8163.19,436.214 8159.82,442.596 8159.91,451.439C8160.01,460.227 8163.28,470.276 8169.73,481.589C8172.57,475.325 8176.02,468.845 8180.09,462.145C8185.03,454.011 8190.1,446.834 8195.32,440.618Z" style="fill:rgb(238,129,200);fill-rule:nonzero;"/>
        </g>
    </g>
</svg>
