<?xml version="1.0" encoding="UTF-8" standalone="no"?>
<!DOCTYPE svg PUBLIC "-//W3C//DTD SVG 1.1//EN" "http://www.w3.org/Graphics/SVG/1.1/DTD/svg11.dtd">
<svg width="100%" height="100%" viewBox="0 0 534 392" version="1.1" xmlns="http://www.w3.org/2000/svg" xmlns:xlink="http://www.w3.org/1999/xlink" xml:space="preserve" xmlns:serif="http://www.serif.com/" style="fill-rule:evenodd;clip-rule:evenodd;stroke-linejoin:round;stroke-miterlimit:2;">
    <g id="Artboard1" transform="matrix(0.152193,0,0,0.111713,0,0)">
        <rect x="0" y="0" width="3507.87" height="3507.87" style="fill:none;"/>
        <clipPath id="_clip1">
            <rect x="0" y="0" width="3507.87" height="3507.87"/>
        </clipPath>
        <g clip-path="url(#_clip1)">
            <g transform="matrix(6.5706,0,0,8.95154,-9367.71,-14314.1)">
                <g transform="matrix(0.241417,0,0,0.183458,1313.1,1573.55)">
                    <g transform="matrix(461.043,0,0,606.698,696.356,1773.5)">
                        <path d="M0.03,-0.299C0.03,-0.398 0.057,-0.474 0.111,-0.528C0.165,-0.58 0.241,-0.607 0.339,-0.607C0.438,-0.607 0.515,-0.58 0.568,-0.526C0.621,-0.472 0.648,-0.396 0.648,-0.299C0.648,-0.201 0.621,-0.125 0.567,-0.071C0.513,-0.017 0.437,0.01 0.339,0.01C0.241,0.01 0.165,-0.017 0.111,-0.071C0.057,-0.125 0.03,-0.201 0.03,-0.299ZM0.181,-0.299C0.181,-0.229 0.187,-0.174 0.198,-0.135C0.209,-0.095 0.226,-0.067 0.249,-0.05C0.272,-0.033 0.302,-0.025 0.339,-0.025C0.376,-0.025 0.406,-0.033 0.429,-0.05C0.452,-0.067 0.469,-0.095 0.48,-0.135C0.491,-0.174 0.497,-0.229 0.497,-0.299C0.497,-0.368 0.491,-0.423 0.48,-0.463C0.469,-0.503 0.452,-0.531 0.429,-0.548C0.406,-0.565 0.376,-0.573 0.339,-0.573C0.302,-0.573 0.272,-0.565 0.249,-0.548C0.226,-0.531 0.209,-0.503 0.198,-0.463C0.187,-0.423 0.181,-0.368 0.181,-0.299Z" style="fill:rgb(57,45,148);fill-rule:nonzero;"/>
                    </g>
                    <g transform="matrix(461.043,0,0,606.698,1045.83,1773.5)">
                        <path d="M0.039,-0.038L0.078,-0.035C0.088,-0.035 0.093,-0.042 0.093,-0.057L0.093,-0.541C0.093,-0.547 0.091,-0.552 0.088,-0.557C0.084,-0.561 0.079,-0.563 0.074,-0.562L0.039,-0.56L0.039,-0.597L0.3,-0.597L0.3,-0.56L0.251,-0.562L0.249,-0.562C0.244,-0.562 0.239,-0.56 0.236,-0.556C0.233,-0.552 0.231,-0.547 0.231,-0.541L0.231,-0.049C0.231,-0.04 0.235,-0.036 0.243,-0.036L0.326,-0.036C0.369,-0.036 0.402,-0.048 0.425,-0.071C0.448,-0.093 0.459,-0.127 0.459,-0.171L0.492,-0.171L0.492,0.003C0.48,0.001 0.439,-0 0.368,-0L0.039,-0L0.039,-0.038Z" style="fill:rgb(57,45,148);fill-rule:nonzero;"/>
                    </g>
                    <g transform="matrix(461.043,0,0,606.698,1319.69,1773.5)">
                        <path d="M0.039,-0.037L0.074,-0.035L0.076,-0.035C0.087,-0.035 0.093,-0.042 0.093,-0.057L0.093,-0.541C0.093,-0.547 0.091,-0.552 0.088,-0.557C0.085,-0.561 0.08,-0.563 0.074,-0.562L0.039,-0.56L0.039,-0.597L0.286,-0.597L0.286,-0.56L0.251,-0.562L0.249,-0.562C0.244,-0.562 0.239,-0.56 0.236,-0.556C0.233,-0.552 0.231,-0.547 0.231,-0.541L0.231,-0.057C0.231,-0.041 0.238,-0.034 0.251,-0.035L0.286,-0.037L0.286,-0L0.039,-0L0.039,-0.037Z" style="fill:rgb(57,45,148);fill-rule:nonzero;"/>
                    </g>
                    <g transform="matrix(461.043,0,0,606.698,1506.41,1773.5)">
                        <path d="M0.931,-0.597L0.931,-0.56L0.901,-0.562C0.895,-0.563 0.89,-0.561 0.886,-0.556C0.881,-0.551 0.878,-0.546 0.876,-0.541L0.691,0.01L0.645,0.01L0.461,-0.468L0.299,0.01L0.25,0.01L0.048,-0.54C0.043,-0.555 0.036,-0.562 0.027,-0.562L-0.003,-0.56L-0.003,-0.597L0.252,-0.597L0.252,-0.56L0.202,-0.562C0.197,-0.562 0.194,-0.561 0.192,-0.56C0.19,-0.558 0.189,-0.555 0.189,-0.551L0.192,-0.54L0.321,-0.182L0.439,-0.526L0.437,-0.531C0.433,-0.542 0.429,-0.551 0.426,-0.556C0.423,-0.561 0.418,-0.563 0.411,-0.562L0.37,-0.56L0.37,-0.597L0.617,-0.597L0.617,-0.56L0.575,-0.562C0.57,-0.562 0.566,-0.56 0.565,-0.555C0.563,-0.55 0.563,-0.545 0.565,-0.54L0.705,-0.159L0.834,-0.542L0.836,-0.55C0.836,-0.554 0.835,-0.557 0.833,-0.56C0.83,-0.562 0.827,-0.563 0.823,-0.562L0.771,-0.56L0.771,-0.597L0.931,-0.597Z" style="fill:rgb(57,45,148);fill-rule:nonzero;"/>
                    </g>
                    <g transform="matrix(461.043,0,0,606.698,1963.3,1773.5)">
                        <path d="M0.039,-0.037L0.074,-0.035L0.076,-0.035C0.087,-0.035 0.093,-0.042 0.093,-0.057L0.093,-0.541C0.093,-0.547 0.091,-0.552 0.088,-0.557C0.085,-0.561 0.08,-0.563 0.074,-0.562L0.039,-0.56L0.039,-0.597L0.286,-0.597L0.286,-0.56L0.251,-0.562L0.249,-0.562C0.244,-0.562 0.239,-0.56 0.236,-0.556C0.233,-0.552 0.231,-0.547 0.231,-0.541L0.231,-0.057C0.231,-0.041 0.238,-0.034 0.251,-0.035L0.286,-0.037L0.286,-0L0.039,-0L0.039,-0.037Z" style="fill:rgb(57,45,148);fill-rule:nonzero;"/>
                    </g>
                    <g transform="matrix(461.043,0,0,606.698,2150.02,1773.5)">
                        <path d="M0.633,-0.037L0.633,-0L0.333,-0L0.333,-0.037L0.379,-0.035C0.399,-0.033 0.409,-0.041 0.409,-0.059C0.409,-0.07 0.406,-0.083 0.399,-0.098L0.362,-0.186L0.142,-0.186L0.108,-0.104C0.099,-0.083 0.094,-0.067 0.094,-0.054C0.094,-0.04 0.101,-0.033 0.116,-0.034L0.161,-0.037L0.161,-0L-0.02,-0L-0.02,-0.037L0.009,-0.035L0.013,-0.035C0.026,-0.035 0.037,-0.041 0.046,-0.054C0.056,-0.069 0.066,-0.088 0.076,-0.112L0.282,-0.607L0.331,-0.607L0.539,-0.11C0.548,-0.086 0.558,-0.067 0.568,-0.053C0.577,-0.041 0.589,-0.035 0.603,-0.035L0.608,-0.035L0.633,-0.037ZM0.156,-0.221L0.348,-0.221L0.251,-0.451L0.156,-0.221Z" style="fill:rgb(57,45,148);fill-rule:nonzero;"/>
                    </g>
                    <g transform="matrix(461.043,0,0,606.698,449.698,2275)">
                        <path d="M0.35,-0.597C0.407,-0.597 0.45,-0.585 0.479,-0.561C0.508,-0.537 0.523,-0.501 0.523,-0.454C0.523,-0.419 0.511,-0.389 0.486,-0.365C0.46,-0.34 0.427,-0.324 0.385,-0.317C0.416,-0.317 0.445,-0.31 0.471,-0.297C0.497,-0.284 0.518,-0.265 0.533,-0.242C0.548,-0.218 0.556,-0.191 0.556,-0.162C0.556,-0.054 0.482,-0 0.335,-0L0.039,-0L0.039,-0.037L0.087,-0.035C0.098,-0.035 0.103,-0.042 0.103,-0.057L0.103,-0.542C0.103,-0.547 0.101,-0.551 0.099,-0.556C0.095,-0.56 0.091,-0.562 0.086,-0.562L0.039,-0.56L0.039,-0.597L0.35,-0.597ZM0.253,-0.562C0.246,-0.562 0.242,-0.558 0.241,-0.55L0.241,-0.329L0.293,-0.329C0.324,-0.329 0.346,-0.339 0.361,-0.358C0.376,-0.377 0.383,-0.407 0.383,-0.449C0.383,-0.524 0.352,-0.562 0.291,-0.562L0.253,-0.562ZM0.241,-0.294L0.241,-0.049C0.241,-0.04 0.246,-0.036 0.255,-0.036L0.304,-0.036C0.338,-0.036 0.365,-0.047 0.385,-0.068C0.404,-0.089 0.414,-0.121 0.414,-0.164C0.414,-0.209 0.406,-0.242 0.39,-0.263C0.374,-0.284 0.35,-0.294 0.317,-0.294L0.241,-0.294Z" style="fill:rgb(57,45,148);fill-rule:nonzero;"/>
                    </g>
                    <g transform="matrix(461.043,0,0,606.698,754.448,2275)">
                        <path d="M0.03,-0.299C0.03,-0.398 0.057,-0.474 0.111,-0.528C0.165,-0.58 0.241,-0.607 0.339,-0.607C0.438,-0.607 0.515,-0.58 0.568,-0.526C0.621,-0.472 0.648,-0.396 0.648,-0.299C0.648,-0.201 0.621,-0.125 0.567,-0.071C0.513,-0.017 0.437,0.01 0.339,0.01C0.241,0.01 0.165,-0.017 0.111,-0.071C0.057,-0.125 0.03,-0.201 0.03,-0.299ZM0.181,-0.299C0.181,-0.229 0.187,-0.174 0.198,-0.135C0.209,-0.095 0.226,-0.067 0.249,-0.05C0.272,-0.033 0.302,-0.025 0.339,-0.025C0.376,-0.025 0.406,-0.033 0.429,-0.05C0.452,-0.067 0.469,-0.095 0.48,-0.135C0.491,-0.174 0.497,-0.229 0.497,-0.299C0.497,-0.368 0.491,-0.423 0.48,-0.463C0.469,-0.503 0.452,-0.531 0.429,-0.548C0.406,-0.565 0.376,-0.573 0.339,-0.573C0.302,-0.573 0.272,-0.565 0.249,-0.548C0.226,-0.531 0.209,-0.503 0.198,-0.463C0.187,-0.423 0.181,-0.368 0.181,-0.299Z" style="fill:rgb(57,45,148);fill-rule:nonzero;"/>
                    </g>
                    <g transform="matrix(461.043,0,0,606.698,1103.92,2275)">
                        <path d="M0.643,-0.597L0.643,-0.567L0.604,-0.569L0.602,-0.569C0.591,-0.569 0.585,-0.562 0.585,-0.548L0.585,0.006L0.525,0.006L0.134,-0.525L0.134,-0.049C0.134,-0.034 0.14,-0.027 0.153,-0.027L0.202,-0.029L0.202,-0L0.034,-0L0.034,-0.029L0.073,-0.027C0.086,-0.027 0.093,-0.034 0.093,-0.049L0.093,-0.548C0.093,-0.554 0.091,-0.559 0.088,-0.564C0.084,-0.568 0.079,-0.57 0.073,-0.569L0.034,-0.567L0.034,-0.597L0.24,-0.597L0.544,-0.183L0.544,-0.549C0.544,-0.562 0.538,-0.569 0.527,-0.569L0.524,-0.569L0.475,-0.567L0.475,-0.597L0.643,-0.597Z" style="fill:rgb(57,45,148);fill-rule:nonzero;"/>
                    </g>
                    <g transform="matrix(461.043,0,0,606.698,1452.93,2275)">
                        <path d="M0.633,-0.037L0.633,-0L0.333,-0L0.333,-0.037L0.379,-0.035C0.399,-0.033 0.409,-0.041 0.409,-0.059C0.409,-0.07 0.406,-0.083 0.399,-0.098L0.362,-0.186L0.142,-0.186L0.108,-0.104C0.099,-0.083 0.094,-0.067 0.094,-0.054C0.094,-0.04 0.101,-0.033 0.116,-0.034L0.161,-0.037L0.161,-0L-0.02,-0L-0.02,-0.037L0.009,-0.035L0.013,-0.035C0.026,-0.035 0.037,-0.041 0.046,-0.054C0.056,-0.069 0.066,-0.088 0.076,-0.112L0.282,-0.607L0.331,-0.607L0.539,-0.11C0.548,-0.086 0.558,-0.067 0.568,-0.053C0.577,-0.041 0.589,-0.035 0.603,-0.035L0.608,-0.035L0.633,-0.037ZM0.156,-0.221L0.348,-0.221L0.251,-0.451L0.156,-0.221Z" style="fill:rgb(57,45,148);fill-rule:nonzero;"/>
                    </g>
                    <g transform="matrix(461.043,0,0,606.698,1772.43,2275)">
                        <path d="M0.039,-0.037L0.074,-0.035L0.076,-0.035C0.087,-0.035 0.093,-0.042 0.093,-0.057L0.093,-0.541C0.093,-0.547 0.091,-0.552 0.088,-0.557C0.084,-0.561 0.078,-0.563 0.071,-0.562L0.039,-0.56L0.039,-0.597L0.298,-0.597C0.37,-0.597 0.423,-0.585 0.458,-0.561C0.492,-0.536 0.509,-0.498 0.509,-0.447C0.509,-0.406 0.496,-0.372 0.471,-0.345C0.445,-0.318 0.409,-0.299 0.364,-0.29C0.388,-0.29 0.412,-0.283 0.437,-0.27C0.462,-0.257 0.482,-0.237 0.499,-0.212C0.515,-0.186 0.523,-0.156 0.523,-0.122C0.523,-0.103 0.526,-0.084 0.532,-0.063C0.537,-0.042 0.544,-0.03 0.552,-0.028C0.556,-0.027 0.56,-0.026 0.565,-0.026C0.571,-0.026 0.576,-0.027 0.581,-0.03L0.581,-0L0.404,-0C0.396,-0.017 0.391,-0.039 0.39,-0.066C0.389,-0.083 0.388,-0.096 0.388,-0.104L0.388,-0.137C0.388,-0.182 0.375,-0.216 0.35,-0.238C0.325,-0.26 0.294,-0.271 0.258,-0.271L0.231,-0.271L0.231,-0.057C0.231,-0.042 0.238,-0.035 0.251,-0.035L0.3,-0.037L0.3,-0L0.039,-0L0.039,-0.037ZM0.294,-0.306C0.318,-0.306 0.337,-0.318 0.352,-0.341C0.366,-0.364 0.373,-0.395 0.373,-0.434C0.373,-0.479 0.365,-0.511 0.349,-0.532C0.333,-0.552 0.308,-0.562 0.275,-0.562L0.243,-0.562C0.235,-0.562 0.231,-0.559 0.231,-0.552L0.231,-0.306L0.294,-0.306Z" style="fill:rgb(57,45,148);fill-rule:nonzero;"/>
                    </g>
                    <g transform="matrix(461.043,0,0,606.698,2084.56,2275)">
                        <path d="M0.039,-0.038L0.075,-0.035C0.087,-0.035 0.093,-0.042 0.093,-0.057L0.093,-0.541C0.093,-0.547 0.091,-0.552 0.088,-0.557C0.084,-0.561 0.079,-0.563 0.073,-0.562L0.039,-0.56L0.039,-0.597L0.48,-0.597C0.489,-0.597 0.495,-0.597 0.497,-0.598L0.497,-0.443L0.462,-0.443C0.462,-0.485 0.451,-0.515 0.428,-0.534C0.405,-0.553 0.369,-0.562 0.32,-0.562L0.243,-0.562C0.235,-0.562 0.231,-0.557 0.231,-0.548L0.231,-0.325L0.303,-0.325C0.326,-0.325 0.344,-0.334 0.358,-0.352C0.372,-0.37 0.379,-0.395 0.379,-0.426L0.413,-0.426L0.413,-0.191L0.379,-0.191C0.379,-0.219 0.372,-0.243 0.357,-0.262C0.341,-0.28 0.324,-0.29 0.303,-0.29L0.231,-0.29L0.231,-0.049C0.231,-0.04 0.235,-0.036 0.243,-0.036L0.353,-0.036C0.398,-0.036 0.433,-0.048 0.457,-0.073C0.48,-0.098 0.492,-0.133 0.492,-0.179L0.527,-0.179L0.527,0.003C0.512,0.001 0.48,-0 0.431,-0L0.039,-0L0.039,-0.038Z" style="fill:rgb(57,45,148);fill-rule:nonzero;"/>
                    </g>
                    <g transform="matrix(461.043,0,0,606.698,2384.7,2275)">
                        <path d="M0.603,-0.034C0.614,-0.034 0.624,-0.035 0.633,-0.037L0.633,-0L0.348,-0L0.348,-0.037L0.391,-0.034L0.394,-0.034C0.405,-0.034 0.411,-0.038 0.411,-0.045C0.411,-0.05 0.409,-0.054 0.406,-0.059L0.267,-0.266L0.231,-0.224L0.231,-0.057C0.231,-0.041 0.238,-0.034 0.251,-0.035L0.296,-0.037L0.296,-0L0.039,-0L0.039,-0.037L0.074,-0.035L0.076,-0.035C0.087,-0.035 0.093,-0.042 0.093,-0.057L0.093,-0.541C0.093,-0.548 0.091,-0.553 0.088,-0.557C0.085,-0.561 0.08,-0.563 0.074,-0.562L0.039,-0.56L0.039,-0.597L0.3,-0.597L0.3,-0.56L0.251,-0.562C0.238,-0.562 0.231,-0.555 0.231,-0.54L0.231,-0.278L0.44,-0.526C0.451,-0.539 0.457,-0.548 0.457,-0.553C0.457,-0.559 0.454,-0.562 0.447,-0.562L0.411,-0.56L0.411,-0.597L0.591,-0.597L0.591,-0.56L0.557,-0.562C0.546,-0.563 0.537,-0.561 0.528,-0.557C0.519,-0.553 0.51,-0.545 0.499,-0.533L0.36,-0.372L0.579,-0.048C0.585,-0.039 0.593,-0.034 0.603,-0.034Z" style="fill:rgb(57,45,148);fill-rule:nonzero;"/>
                    </g>
                </g>
                <g transform="matrix(0.742025,0,0,0.742025,-4418.69,1296.13)">
                    <path d="M8191.46,572.818C8169.73,553.234 8152.57,452.731 8152.57,452.731C8151.62,445.909 8152.9,439.292 8156.42,432.881C8159.93,426.469 8165.35,421.166 8172.67,416.972C8186.52,409.041 8199.48,407.398 8211.54,412.044C8215.13,413.424 8218.61,415.352 8221.99,417.83C8224.14,416.661 8226.31,415.63 8228.49,414.736C8245.9,407.617 8264.17,409.862 8283.3,421.472C8302.61,433.185 8313.03,448.355 8314.59,466.98C8316.14,485.605 8309.48,507.161 8294.62,531.649C8263.94,582.211 8224.56,602.651 8191.46,572.818ZM8194.37,525.342C8192.78,529.478 8191.63,533.174 8190.93,536.431C8188.41,548.088 8191,556.25 8198.68,560.914C8206.37,565.579 8214.73,564.135 8223.75,556.581C8232.78,549.028 8244.31,533.688 8258.34,510.56C8272.65,486.98 8281.14,469.33 8283.81,457.611C8286.48,445.892 8283.97,437.7 8276.29,433.035C8268.6,428.371 8260.13,429.902 8250.88,437.631C8248.75,439.411 8246.49,441.613 8244.09,444.234C8244.17,444.376 8244.26,444.519 8244.34,444.662C8253.95,461.453 8257.5,476.304 8254.96,489.216C8252.42,502.127 8244.07,512.64 8229.9,520.754C8221.62,525.495 8214.63,527.864 8208.92,527.86C8204.27,527.858 8199.42,527.019 8194.37,525.342ZM8218.97,479.035C8217.84,480.835 8216.7,482.689 8215.55,484.594C8208.26,496.612 8202.53,507.082 8198.37,516.006C8204.31,518.398 8210.33,517.85 8216.41,514.364C8220.87,511.812 8223.64,508.535 8224.73,504.535C8225.82,500.534 8225.27,495.326 8223.08,488.912C8222.08,486.017 8220.72,482.725 8218.97,479.035ZM8195.32,440.618C8193.26,438.189 8191.28,436.166 8189.4,434.55C8183.17,429.217 8176.72,428.464 8170.03,432.293C8163.19,436.214 8159.82,442.596 8159.91,451.439C8160.01,460.227 8163.28,470.276 8169.73,481.589C8172.57,475.325 8176.02,468.845 8180.09,462.145C8185.03,454.011 8190.1,446.834 8195.32,440.618Z" style="fill:rgb(238,129,200);fill-rule:nonzero;"/>
                </g>
            </g>
        </g>
    </g>
</svg>
