<?xml version="1.0" encoding="UTF-8" standalone="no"?>
<!DOCTYPE svg PUBLIC "-//W3C//DTD SVG 1.1//EN" "http://www.w3.org/Graphics/SVG/1.1/DTD/svg11.dtd">
<svg width="100%" height="100%" viewBox="0 0 132 245" version="1.1" xmlns="http://www.w3.org/2000/svg" xmlns:xlink="http://www.w3.org/1999/xlink" xml:space="preserve" xmlns:serif="http://www.serif.com/" style="fill-rule:evenodd;clip-rule:evenodd;stroke-linejoin:round;stroke-miterlimit:2;">
    <g id="Artboard1" transform="matrix(0.0375937,0,0,0.069807,0,0)">
        <rect x="0" y="0" width="3507.87" height="3507.87" style="fill:none;"/>
        <g transform="matrix(-16.256,-1.07211e-15,1.99078e-15,-8.75447,6541.94,3944.26)">
            <path d="M202.1,450C193.872,449.998 187.103,443.228 187.103,435C187.103,431.022 188.686,427.202 191.5,424.39L365.79,250.1L191.5,75.81C188.8,73.014 187.289,69.276 187.289,65.389C187.289,57.161 194.061,50.389 202.289,50.389C206.176,50.389 209.914,51.9 212.71,54.6L397.61,239.5C403.427,245.318 403.427,254.892 397.61,260.71L212.71,445.61C209.897,448.422 206.077,450.002 202.1,450Z" style="fill:rgb(57,45,148);fill-rule:nonzero;"/>
        </g>
    </g>
</svg>
