<?xml version="1.0" encoding="UTF-8" standalone="no"?>
<!DOCTYPE svg PUBLIC "-//W3C//DTD SVG 1.1//EN" "http://www.w3.org/Graphics/SVG/1.1/DTD/svg11.dtd">
<svg width="100%" height="100%" viewBox="0 0 250 250" version="1.1" xmlns="http://www.w3.org/2000/svg" xmlns:xlink="http://www.w3.org/1999/xlink" xml:space="preserve" xmlns:serif="http://www.serif.com/" style="fill-rule:evenodd;clip-rule:evenodd;stroke-linejoin:round;stroke-miterlimit:2;">
    <g id="Artboard1" transform="matrix(0.0712323,0,0,0.0712323,0,0)">
        <rect x="0" y="0" width="3507.87" height="3507.87" style="fill:none;"/>
        <clipPath id="_clip1">
            <rect x="0" y="0" width="3507.87" height="3507.87"/>
        </clipPath>
        <g clip-path="url(#_clip1)">
            <g transform="matrix(58.494,0,0,58.494,-176.366,-234.86)">
                <path d="M44.271,26.578L44.271,26.572C44.773,26.572 45.276,26.582 45.779,26.57C46.425,26.554 46.951,26 46.951,25.353L46.951,22.463C46.951,21.772 46.404,21.223 45.715,21.222C44.754,21.222 43.793,21.221 42.832,21.222C42.144,21.223 41.596,21.774 41.596,22.465C41.595,23.42 41.592,24.375 41.599,25.33C41.6,25.473 41.627,25.621 41.672,25.756C41.845,26.264 42.311,26.576 42.881,26.579C43.344,26.579 43.808,26.578 44.271,26.578ZM35,27.817C31.616,27.815 28.865,30.538 28.818,33.906C28.769,37.366 31.538,40.107 34.858,40.178C38.312,40.252 41.106,37.492 41.179,34.135C41.254,30.675 38.462,27.815 35,27.817ZM23.046,31.116L23.046,31.198C23.046,35.713 23.045,40.228 23.046,44.743C23.046,45.392 23.608,45.951 24.258,45.951C31.418,45.952 38.577,45.952 45.737,45.951C46.393,45.951 46.952,45.394 46.952,44.739C46.953,40.23 46.952,35.719 46.952,31.211L46.952,31.117L44.04,31.117C44.451,32.431 44.577,33.768 44.416,35.131C44.255,36.494 43.815,37.762 43.1,38.934C42.385,40.106 41.456,41.079 40.321,41.852C37.377,43.858 33.5,44.034 30.375,42.28C28.796,41.395 27.556,40.16 26.69,38.567C25.401,36.194 25.195,33.702 25.951,31.116L23.046,31.116ZM47.205,49.255C47.364,49.229 47.523,49.206 47.68,49.172C48.926,48.907 49.944,47.868 50.188,46.615C50.213,46.478 50.233,46.342 50.255,46.206L50.255,21.794C50.234,21.661 50.215,21.526 50.19,21.393C49.922,20.026 48.794,18.965 47.41,18.775C47.352,18.768 47.297,18.755 47.24,18.745L22.761,18.745C22.614,18.772 22.465,18.792 22.32,18.825C20.968,19.133 19.968,20.221 19.775,21.591C19.767,21.648 19.755,21.705 19.746,21.762L19.746,46.24C19.774,46.394 19.796,46.551 19.831,46.705C20.13,48.027 21.258,49.052 22.601,49.225C22.665,49.233 22.731,49.246 22.796,49.255L47.205,49.255ZM3,4L63,4L63,64L3,64L3,4Z" style="fill:rgb(238,129,200);"/>
            </g>
        </g>
    </g>
</svg>
