<?xml version="1.0" encoding="UTF-8" standalone="no"?>
<!DOCTYPE svg PUBLIC "-//W3C//DTD SVG 1.1//EN" "http://www.w3.org/Graphics/SVG/1.1/DTD/svg11.dtd">
<svg width="100%" height="100%" viewBox="0 0 719 536" version="1.1" xmlns="http://www.w3.org/2000/svg" xmlns:xlink="http://www.w3.org/1999/xlink" xml:space="preserve" xmlns:serif="http://www.serif.com/" style="fill-rule:evenodd;clip-rule:evenodd;stroke-linejoin:round;stroke-miterlimit:2;">
    <g transform="matrix(1,0,0,1,-6004.67,0)">
        <g id="_3" serif:id="3" transform="matrix(0.204932,0,0,0.21589,5243.1,0)">
            <rect x="3716.21" y="0" width="3507.87" height="2480.32" style="fill:none;"/>
            <clipPath id="_clip1">
                <rect x="3716.21" y="0" width="3507.87" height="2480.32"/>
            </clipPath>
            <g clip-path="url(#_clip1)">
                <g transform="matrix(14.5498,0,0,13.8113,-114327,-5622.45)">
                    <path d="M8191.46,572.818C8169.73,553.234 8152.57,452.731 8152.57,452.731C8151.62,445.909 8152.9,439.292 8156.42,432.881C8159.93,426.469 8165.35,421.166 8172.67,416.972C8186.52,409.041 8199.48,407.398 8211.54,412.044C8215.13,413.424 8218.61,415.352 8221.99,417.83C8224.14,416.661 8226.31,415.63 8228.49,414.736C8245.9,407.617 8264.17,409.862 8283.3,421.472C8302.61,433.185 8313.03,448.355 8314.59,466.98C8316.14,485.605 8309.48,507.161 8294.62,531.649C8263.94,582.211 8224.56,602.651 8191.46,572.818ZM8194.37,525.342C8192.78,529.478 8191.63,533.174 8190.93,536.431C8188.41,548.088 8191,556.25 8198.68,560.914C8206.37,565.579 8214.73,564.135 8223.75,556.581C8232.78,549.028 8244.31,533.688 8258.34,510.56C8272.65,486.98 8281.14,469.33 8283.81,457.611C8286.48,445.892 8283.97,437.7 8276.29,433.035C8268.6,428.371 8260.13,429.902 8250.88,437.631C8248.75,439.411 8246.49,441.613 8244.09,444.234C8244.17,444.376 8244.26,444.519 8244.34,444.662C8253.95,461.453 8257.5,476.304 8254.96,489.216C8252.42,502.127 8244.07,512.64 8229.9,520.754C8221.62,525.495 8214.63,527.864 8208.92,527.86C8204.27,527.858 8199.42,527.019 8194.37,525.342ZM8218.97,479.035C8217.84,480.835 8216.7,482.689 8215.55,484.594C8208.26,496.612 8202.53,507.082 8198.37,516.006C8204.31,518.398 8210.33,517.85 8216.41,514.364C8220.87,511.812 8223.64,508.535 8224.73,504.535C8225.82,500.534 8225.27,495.326 8223.08,488.912C8222.08,486.017 8220.72,482.725 8218.97,479.035ZM8195.32,440.618C8193.26,438.189 8191.28,436.166 8189.4,434.55C8183.17,429.217 8176.72,428.464 8170.03,432.293C8163.19,436.214 8159.82,442.596 8159.91,451.439C8160.01,460.227 8163.28,470.276 8169.73,481.589C8172.57,475.325 8176.02,468.845 8180.09,462.145C8185.03,454.011 8190.1,446.834 8195.32,440.618Z" style="fill:rgb(238,129,200);fill-rule:nonzero;"/>
                </g>
            </g>
        </g>
    </g>
</svg>
